<mxfile host="app.diagrams.net" agent="Mozilla/5.0 (Windows NT 10.0; Win64; x64) AppleWebKit/537.36 (KHTML, like Gecko) Chrome/141.0.0.0 Safari/537.36 Edg/141.0.0.0" version="28.2.8">
  <diagram name="Page-1" id="2YBvvXClWsGukQMizWep">
    <mxGraphModel dx="1418" dy="794" grid="1" gridSize="10" guides="1" tooltips="1" connect="1" arrows="1" fold="1" page="1" pageScale="1" pageWidth="850" pageHeight="1100" math="0" shadow="0">
      <root>
        <mxCell id="0" />
        <mxCell id="1" parent="0" />
        <mxCell id="aM9ryv3xv72pqoxQDRHE-1" value=":GUI" style="shape=umlLifeline;perimeter=lifelinePerimeter;whiteSpace=wrap;html=1;container=0;dropTarget=0;collapsible=0;recursiveResize=0;outlineConnect=0;portConstraint=eastwest;newEdgeStyle={&quot;edgeStyle&quot;:&quot;elbowEdgeStyle&quot;,&quot;elbow&quot;:&quot;vertical&quot;,&quot;curved&quot;:0,&quot;rounded&quot;:0};" parent="1" vertex="1">
          <mxGeometry x="111" y="48" width="100" height="952" as="geometry" />
        </mxCell>
        <mxCell id="aM9ryv3xv72pqoxQDRHE-2" value="" style="html=1;points=[];perimeter=orthogonalPerimeter;outlineConnect=0;targetShapes=umlLifeline;portConstraint=eastwest;newEdgeStyle={&quot;edgeStyle&quot;:&quot;elbowEdgeStyle&quot;,&quot;elbow&quot;:&quot;vertical&quot;,&quot;curved&quot;:0,&quot;rounded&quot;:0};" parent="aM9ryv3xv72pqoxQDRHE-1" vertex="1">
          <mxGeometry x="45" y="70" width="10" height="840" as="geometry" />
        </mxCell>
        <mxCell id="aM9ryv3xv72pqoxQDRHE-3" value="dispatch" style="html=1;verticalAlign=bottom;startArrow=oval;endArrow=block;startSize=8;edgeStyle=elbowEdgeStyle;elbow=vertical;curved=0;rounded=0;" parent="aM9ryv3xv72pqoxQDRHE-1" target="aM9ryv3xv72pqoxQDRHE-2" edge="1">
          <mxGeometry relative="1" as="geometry">
            <mxPoint x="-15" y="70" as="sourcePoint" />
          </mxGeometry>
        </mxCell>
        <mxCell id="aM9ryv3xv72pqoxQDRHE-5" value=":ControllerClass" style="shape=umlLifeline;perimeter=lifelinePerimeter;whiteSpace=wrap;html=1;container=0;dropTarget=0;collapsible=0;recursiveResize=0;outlineConnect=0;portConstraint=eastwest;newEdgeStyle={&quot;edgeStyle&quot;:&quot;elbowEdgeStyle&quot;,&quot;elbow&quot;:&quot;vertical&quot;,&quot;curved&quot;:0,&quot;rounded&quot;:0};" parent="1" vertex="1">
          <mxGeometry x="354" y="48" width="100" height="952" as="geometry" />
        </mxCell>
        <mxCell id="aM9ryv3xv72pqoxQDRHE-6" value="" style="html=1;points=[];perimeter=orthogonalPerimeter;outlineConnect=0;targetShapes=umlLifeline;portConstraint=eastwest;newEdgeStyle={&quot;edgeStyle&quot;:&quot;elbowEdgeStyle&quot;,&quot;elbow&quot;:&quot;vertical&quot;,&quot;curved&quot;:0,&quot;rounded&quot;:0};" parent="aM9ryv3xv72pqoxQDRHE-5" vertex="1">
          <mxGeometry x="45" y="94" width="10" height="816" as="geometry" />
        </mxCell>
        <mxCell id="aM9ryv3xv72pqoxQDRHE-7" value="" style="html=1;verticalAlign=bottom;endArrow=block;edgeStyle=elbowEdgeStyle;elbow=vertical;curved=0;rounded=0;" parent="1" edge="1">
          <mxGeometry relative="1" as="geometry">
            <mxPoint x="166" y="142" as="sourcePoint" />
            <Array as="points">
              <mxPoint x="209" y="142" />
              <mxPoint x="251" y="122" />
            </Array>
            <mxPoint x="399" y="142" as="targetPoint" />
          </mxGeometry>
        </mxCell>
        <mxCell id="0jZ7-tW0BVTjiJO53gmQ-3" value="managePromoCodes()" style="edgeLabel;html=1;align=center;verticalAlign=middle;resizable=0;points=[];" parent="aM9ryv3xv72pqoxQDRHE-7" vertex="1" connectable="0">
          <mxGeometry x="-0.0645" y="3" relative="1" as="geometry">
            <mxPoint y="-7" as="offset" />
          </mxGeometry>
        </mxCell>
        <mxCell id="aM9ryv3xv72pqoxQDRHE-8" value="display &quot;Existing Promo Codes&quot;" style="html=1;verticalAlign=bottom;endArrow=open;dashed=1;endSize=8;edgeStyle=elbowEdgeStyle;elbow=vertical;curved=0;rounded=0;" parent="1" edge="1">
          <mxGeometry relative="1" as="geometry">
            <mxPoint x="166" y="240.0000000000001" as="targetPoint" />
            <Array as="points">
              <mxPoint x="264" y="240" />
            </Array>
            <mxPoint x="399" y="240" as="sourcePoint" />
          </mxGeometry>
        </mxCell>
        <mxCell id="VEuW4mEXxXxEv6BpwXh5-1" value="Admin" style="shape=umlActor;verticalLabelPosition=bottom;verticalAlign=top;html=1;" parent="1" vertex="1">
          <mxGeometry x="59" y="78" width="30" height="60" as="geometry" />
        </mxCell>
        <mxCell id="VEuW4mEXxXxEv6BpwXh5-5" value=":PromotionalCodes" style="shape=umlLifeline;perimeter=lifelinePerimeter;whiteSpace=wrap;html=1;container=0;dropTarget=0;collapsible=0;recursiveResize=0;outlineConnect=0;portConstraint=eastwest;newEdgeStyle={&quot;edgeStyle&quot;:&quot;elbowEdgeStyle&quot;,&quot;elbow&quot;:&quot;vertical&quot;,&quot;curved&quot;:0,&quot;rounded&quot;:0};" parent="1" vertex="1">
          <mxGeometry x="739" y="48" width="120" height="952" as="geometry" />
        </mxCell>
        <mxCell id="VEuW4mEXxXxEv6BpwXh5-6" value="" style="html=1;points=[];perimeter=orthogonalPerimeter;outlineConnect=0;targetShapes=umlLifeline;portConstraint=eastwest;newEdgeStyle={&quot;edgeStyle&quot;:&quot;elbowEdgeStyle&quot;,&quot;elbow&quot;:&quot;vertical&quot;,&quot;curved&quot;:0,&quot;rounded&quot;:0};" parent="VEuW4mEXxXxEv6BpwXh5-5" vertex="1">
          <mxGeometry x="55" y="421" width="10" height="98" as="geometry" />
        </mxCell>
        <mxCell id="0jZ7-tW0BVTjiJO53gmQ-1" value=":DB" style="shape=umlLifeline;perimeter=lifelinePerimeter;whiteSpace=wrap;html=1;container=0;dropTarget=0;collapsible=0;recursiveResize=0;outlineConnect=0;portConstraint=eastwest;newEdgeStyle={&quot;edgeStyle&quot;:&quot;elbowEdgeStyle&quot;,&quot;elbow&quot;:&quot;vertical&quot;,&quot;curved&quot;:0,&quot;rounded&quot;:0};" parent="1" vertex="1">
          <mxGeometry x="922" y="49" width="120" height="951" as="geometry" />
        </mxCell>
        <mxCell id="EJbwKhiUwv7nrLsNbU0W-14" value="" style="html=1;points=[];perimeter=orthogonalPerimeter;outlineConnect=0;targetShapes=umlLifeline;portConstraint=eastwest;newEdgeStyle={&quot;edgeStyle&quot;:&quot;elbowEdgeStyle&quot;,&quot;elbow&quot;:&quot;vertical&quot;,&quot;curved&quot;:0,&quot;rounded&quot;:0};" parent="0jZ7-tW0BVTjiJO53gmQ-1" vertex="1">
          <mxGeometry x="55" y="451" width="10" height="39" as="geometry" />
        </mxCell>
        <mxCell id="0jZ7-tW0BVTjiJO53gmQ-4" value=":Code&lt;div&gt;Catalogue&lt;/div&gt;" style="shape=umlLifeline;perimeter=lifelinePerimeter;whiteSpace=wrap;html=1;container=0;dropTarget=0;collapsible=0;recursiveResize=0;outlineConnect=0;portConstraint=eastwest;newEdgeStyle={&quot;edgeStyle&quot;:&quot;elbowEdgeStyle&quot;,&quot;elbow&quot;:&quot;vertical&quot;,&quot;curved&quot;:0,&quot;rounded&quot;:0};" parent="1" vertex="1">
          <mxGeometry x="549" y="48" width="120" height="952" as="geometry" />
        </mxCell>
        <mxCell id="0jZ7-tW0BVTjiJO53gmQ-5" value="" style="html=1;points=[];perimeter=orthogonalPerimeter;outlineConnect=0;targetShapes=umlLifeline;portConstraint=eastwest;newEdgeStyle={&quot;edgeStyle&quot;:&quot;elbowEdgeStyle&quot;,&quot;elbow&quot;:&quot;vertical&quot;,&quot;curved&quot;:0,&quot;rounded&quot;:0};" parent="0jZ7-tW0BVTjiJO53gmQ-4" vertex="1">
          <mxGeometry x="55" y="113" width="10" height="567" as="geometry" />
        </mxCell>
        <mxCell id="0jZ7-tW0BVTjiJO53gmQ-6" value="" style="html=1;verticalAlign=bottom;endArrow=block;edgeStyle=elbowEdgeStyle;elbow=vertical;curved=0;rounded=0;" parent="1" edge="1">
          <mxGeometry relative="1" as="geometry">
            <mxPoint x="409" y="161" as="sourcePoint" />
            <Array as="points">
              <mxPoint x="452" y="161" />
              <mxPoint x="494" y="141" />
            </Array>
            <mxPoint x="604" y="161" as="targetPoint" />
          </mxGeometry>
        </mxCell>
        <mxCell id="0jZ7-tW0BVTjiJO53gmQ-7" value="showPromoCodes()" style="edgeLabel;html=1;align=center;verticalAlign=middle;resizable=0;points=[];" parent="0jZ7-tW0BVTjiJO53gmQ-6" vertex="1" connectable="0">
          <mxGeometry x="-0.0645" y="3" relative="1" as="geometry">
            <mxPoint y="-7" as="offset" />
          </mxGeometry>
        </mxCell>
        <mxCell id="0jZ7-tW0BVTjiJO53gmQ-8" value="return PromoCodesList" style="html=1;verticalAlign=bottom;endArrow=open;dashed=1;endSize=8;edgeStyle=elbowEdgeStyle;elbow=vertical;curved=0;rounded=0;" parent="1" edge="1">
          <mxGeometry x="0.0051" relative="1" as="geometry">
            <mxPoint x="409" y="200" as="targetPoint" />
            <Array as="points">
              <mxPoint x="499" y="200" />
            </Array>
            <mxPoint x="604" y="200.0000000000001" as="sourcePoint" />
            <mxPoint as="offset" />
          </mxGeometry>
        </mxCell>
        <mxCell id="0jZ7-tW0BVTjiJO53gmQ-9" value="" style="html=1;verticalAlign=bottom;endArrow=block;edgeStyle=elbowEdgeStyle;elbow=vertical;curved=0;rounded=0;" parent="1" edge="1">
          <mxGeometry relative="1" as="geometry">
            <mxPoint x="167" y="280" as="sourcePoint" />
            <Array as="points">
              <mxPoint x="210" y="280" />
              <mxPoint x="252" y="260" />
            </Array>
            <mxPoint x="400" y="280" as="targetPoint" />
          </mxGeometry>
        </mxCell>
        <mxCell id="0jZ7-tW0BVTjiJO53gmQ-10" value="deletePromoCode(code)" style="edgeLabel;html=1;align=center;verticalAlign=middle;resizable=0;points=[];" parent="0jZ7-tW0BVTjiJO53gmQ-9" vertex="1" connectable="0">
          <mxGeometry x="-0.0645" y="3" relative="1" as="geometry">
            <mxPoint y="-7" as="offset" />
          </mxGeometry>
        </mxCell>
        <mxCell id="0jZ7-tW0BVTjiJO53gmQ-28" value="" style="swimlane;startSize=0;" parent="1" vertex="1">
          <mxGeometry x="140" y="335" width="860" height="605" as="geometry" />
        </mxCell>
        <mxCell id="EJbwKhiUwv7nrLsNbU0W-18" value="&lt;div&gt;&lt;span style=&quot;text-wrap-mode: nowrap; background-color: rgb(255, 255, 255);&quot;&gt;If user enters Yes&lt;/span&gt;&lt;/div&gt;" style="text;whiteSpace=wrap;html=1;fontSize=12;align=center;" parent="0jZ7-tW0BVTjiJO53gmQ-28" vertex="1">
          <mxGeometry x="20" y="2" width="130" height="40" as="geometry" />
        </mxCell>
        <mxCell id="BeFSrIk958UR365Rvj6z-5" value="" style="html=1;verticalAlign=bottom;endArrow=block;edgeStyle=elbowEdgeStyle;elbow=vertical;curved=0;rounded=0;" parent="0jZ7-tW0BVTjiJO53gmQ-28" edge="1">
          <mxGeometry relative="1" as="geometry">
            <mxPoint x="26" y="47" as="sourcePoint" />
            <Array as="points">
              <mxPoint x="69" y="47" />
              <mxPoint x="111" y="27" />
            </Array>
            <mxPoint x="259" y="47" as="targetPoint" />
          </mxGeometry>
        </mxCell>
        <mxCell id="BeFSrIk958UR365Rvj6z-6" value="deletePromoCode(code)" style="edgeLabel;html=1;align=center;verticalAlign=middle;resizable=0;points=[];" parent="BeFSrIk958UR365Rvj6z-5" vertex="1" connectable="0">
          <mxGeometry x="-0.0645" y="3" relative="1" as="geometry">
            <mxPoint y="-7" as="offset" />
          </mxGeometry>
        </mxCell>
        <mxCell id="BeFSrIk958UR365Rvj6z-7" value="" style="html=1;verticalAlign=bottom;endArrow=block;edgeStyle=elbowEdgeStyle;elbow=vertical;curved=0;rounded=0;" parent="0jZ7-tW0BVTjiJO53gmQ-28" target="0jZ7-tW0BVTjiJO53gmQ-5" edge="1">
          <mxGeometry relative="1" as="geometry">
            <mxPoint x="270" y="95" as="sourcePoint" />
            <Array as="points">
              <mxPoint x="313" y="95" />
              <mxPoint x="355" y="75" />
            </Array>
            <mxPoint x="450" y="95" as="targetPoint" />
          </mxGeometry>
        </mxCell>
        <mxCell id="BeFSrIk958UR365Rvj6z-8" value="removeCodeFromCatalogue(code)" style="edgeLabel;html=1;align=center;verticalAlign=middle;resizable=0;points=[];" parent="BeFSrIk958UR365Rvj6z-7" vertex="1" connectable="0">
          <mxGeometry x="-0.0645" y="3" relative="1" as="geometry">
            <mxPoint y="-7" as="offset" />
          </mxGeometry>
        </mxCell>
        <mxCell id="BeFSrIk958UR365Rvj6z-9" value="" style="html=1;verticalAlign=bottom;endArrow=block;edgeStyle=elbowEdgeStyle;elbow=vertical;curved=0;rounded=0;" parent="0jZ7-tW0BVTjiJO53gmQ-28" edge="1">
          <mxGeometry relative="1" as="geometry">
            <mxPoint x="474" y="135" as="sourcePoint" />
            <Array as="points">
              <mxPoint x="517" y="135" />
              <mxPoint x="559" y="115" />
            </Array>
            <mxPoint x="654" y="135" as="targetPoint" />
          </mxGeometry>
        </mxCell>
        <mxCell id="BeFSrIk958UR365Rvj6z-10" value="removeCode(code)" style="edgeLabel;html=1;align=center;verticalAlign=middle;resizable=0;points=[];" parent="BeFSrIk958UR365Rvj6z-9" vertex="1" connectable="0">
          <mxGeometry x="-0.0645" y="3" relative="1" as="geometry">
            <mxPoint y="-7" as="offset" />
          </mxGeometry>
        </mxCell>
        <mxCell id="BeFSrIk958UR365Rvj6z-11" value="" style="html=1;verticalAlign=bottom;endArrow=block;edgeStyle=elbowEdgeStyle;elbow=vertical;curved=0;rounded=0;" parent="0jZ7-tW0BVTjiJO53gmQ-28" target="EJbwKhiUwv7nrLsNbU0W-14" edge="1">
          <mxGeometry relative="1" as="geometry">
            <mxPoint x="664" y="165" as="sourcePoint" />
            <Array as="points">
              <mxPoint x="704" y="165" />
              <mxPoint x="746" y="145" />
            </Array>
            <mxPoint x="831" y="165" as="targetPoint" />
          </mxGeometry>
        </mxCell>
        <mxCell id="BeFSrIk958UR365Rvj6z-12" value="&lt;font style=&quot;font-size: 10px;&quot;&gt;removeCodeEntry(code)&lt;/font&gt;" style="edgeLabel;html=1;align=center;verticalAlign=middle;resizable=0;points=[];fontSize=7;" parent="BeFSrIk958UR365Rvj6z-11" vertex="1" connectable="0">
          <mxGeometry x="-0.0645" y="3" relative="1" as="geometry">
            <mxPoint x="1" y="-7" as="offset" />
          </mxGeometry>
        </mxCell>
        <mxCell id="BeFSrIk958UR365Rvj6z-13" value="return success/failure" style="html=1;verticalAlign=bottom;endArrow=open;dashed=1;endSize=8;edgeStyle=elbowEdgeStyle;elbow=vertical;curved=0;rounded=0;" parent="0jZ7-tW0BVTjiJO53gmQ-28" edge="1">
          <mxGeometry relative="1" as="geometry">
            <mxPoint x="664" y="204" as="targetPoint" />
            <Array as="points">
              <mxPoint x="732" y="204" />
            </Array>
            <mxPoint x="837" y="204.0000000000001" as="sourcePoint" />
          </mxGeometry>
        </mxCell>
        <mxCell id="BeFSrIk958UR365Rvj6z-14" value="return success/failure" style="html=1;verticalAlign=bottom;endArrow=open;dashed=1;endSize=8;edgeStyle=elbowEdgeStyle;elbow=vertical;curved=0;rounded=0;" parent="0jZ7-tW0BVTjiJO53gmQ-28" target="0jZ7-tW0BVTjiJO53gmQ-5" edge="1">
          <mxGeometry relative="1" as="geometry">
            <mxPoint x="480" y="225" as="targetPoint" />
            <Array as="points">
              <mxPoint x="548" y="225" />
            </Array>
            <mxPoint x="653" y="225.0000000000001" as="sourcePoint" />
          </mxGeometry>
        </mxCell>
        <mxCell id="BeFSrIk958UR365Rvj6z-15" value="return success/failure" style="html=1;verticalAlign=bottom;endArrow=open;dashed=1;endSize=8;edgeStyle=elbowEdgeStyle;elbow=vertical;curved=0;rounded=0;" parent="0jZ7-tW0BVTjiJO53gmQ-28" target="aM9ryv3xv72pqoxQDRHE-6" edge="1">
          <mxGeometry relative="1" as="geometry">
            <mxPoint x="285" y="265" as="targetPoint" />
            <Array as="points">
              <mxPoint x="359" y="265" />
            </Array>
            <mxPoint x="464" y="265.0000000000001" as="sourcePoint" />
          </mxGeometry>
        </mxCell>
        <mxCell id="0jZ7-tW0BVTjiJO53gmQ-37" value="&lt;div style=&quot;&quot;&gt;&lt;span style=&quot;text-wrap-mode: nowrap; background-color: rgb(255, 255, 255);&quot;&gt;else&lt;/span&gt;&lt;/div&gt;" style="text;whiteSpace=wrap;html=1;fontSize=14;align=center;" parent="0jZ7-tW0BVTjiJO53gmQ-28" vertex="1">
          <mxGeometry x="-10" y="525" width="130" height="40" as="geometry" />
        </mxCell>
        <mxCell id="BeFSrIk958UR365Rvj6z-22" value="" style="line;strokeWidth=1;html=1;" parent="0jZ7-tW0BVTjiJO53gmQ-28" vertex="1">
          <mxGeometry y="515" width="860" height="10" as="geometry" />
        </mxCell>
        <mxCell id="BeFSrIk958UR365Rvj6z-23" value="display &quot;No Change in Codes&quot;" style="html=1;verticalAlign=bottom;endArrow=open;dashed=1;endSize=8;edgeStyle=elbowEdgeStyle;elbow=vertical;curved=0;rounded=0;" parent="0jZ7-tW0BVTjiJO53gmQ-28" edge="1">
          <mxGeometry relative="1" as="geometry">
            <mxPoint x="25" y="564.0000000000001" as="targetPoint" />
            <Array as="points">
              <mxPoint x="123" y="564" />
            </Array>
            <mxPoint x="258" y="564" as="sourcePoint" />
          </mxGeometry>
        </mxCell>
        <mxCell id="0jZ7-tW0BVTjiJO53gmQ-55" value="" style="swimlane;startSize=0;" parent="1" vertex="1">
          <mxGeometry x="150" y="615" width="530" height="225" as="geometry" />
        </mxCell>
        <mxCell id="0jZ7-tW0BVTjiJO53gmQ-57" value="&lt;span style=&quot;text-wrap-mode: nowrap; background-color: rgb(255, 255, 255);&quot;&gt;If success&lt;/span&gt;" style="text;whiteSpace=wrap;html=1;fontSize=14;align=left;" parent="0jZ7-tW0BVTjiJO53gmQ-55" vertex="1">
          <mxGeometry x="30.5" y="3" width="195" height="40" as="geometry" />
        </mxCell>
        <mxCell id="0jZ7-tW0BVTjiJO53gmQ-58" value="&lt;div style=&quot;&quot;&gt;&lt;span style=&quot;text-wrap-mode: nowrap; background-color: rgb(255, 255, 255);&quot;&gt;else&lt;/span&gt;&lt;/div&gt;" style="text;whiteSpace=wrap;html=1;fontSize=14;align=center;" parent="0jZ7-tW0BVTjiJO53gmQ-55" vertex="1">
          <mxGeometry x="-1" y="163" width="130" height="40" as="geometry" />
        </mxCell>
        <mxCell id="0jZ7-tW0BVTjiJO53gmQ-56" value="" style="line;strokeWidth=1;html=1;" parent="0jZ7-tW0BVTjiJO53gmQ-55" vertex="1">
          <mxGeometry y="159" width="530" height="10" as="geometry" />
        </mxCell>
        <mxCell id="BeFSrIk958UR365Rvj6z-16" value="" style="html=1;verticalAlign=bottom;endArrow=block;edgeStyle=elbowEdgeStyle;elbow=vertical;curved=0;rounded=0;" parent="0jZ7-tW0BVTjiJO53gmQ-55" edge="1">
          <mxGeometry relative="1" as="geometry">
            <mxPoint x="260" y="65" as="sourcePoint" />
            <Array as="points">
              <mxPoint x="303" y="65" />
              <mxPoint x="345" y="45" />
            </Array>
            <mxPoint x="455" y="65" as="targetPoint" />
          </mxGeometry>
        </mxCell>
        <mxCell id="BeFSrIk958UR365Rvj6z-17" value="showPromoCodes()" style="edgeLabel;html=1;align=center;verticalAlign=middle;resizable=0;points=[];" parent="BeFSrIk958UR365Rvj6z-16" vertex="1" connectable="0">
          <mxGeometry x="-0.0645" y="3" relative="1" as="geometry">
            <mxPoint y="-7" as="offset" />
          </mxGeometry>
        </mxCell>
        <mxCell id="BeFSrIk958UR365Rvj6z-18" value="" style="html=1;verticalAlign=bottom;endArrow=block;edgeStyle=elbowEdgeStyle;elbow=vertical;curved=0;rounded=0;" parent="0jZ7-tW0BVTjiJO53gmQ-55" edge="1">
          <mxGeometry relative="1" as="geometry">
            <mxPoint x="17" y="50" as="sourcePoint" />
            <Array as="points">
              <mxPoint x="60" y="50" />
              <mxPoint x="102" y="30" />
            </Array>
            <mxPoint x="250" y="50" as="targetPoint" />
          </mxGeometry>
        </mxCell>
        <mxCell id="BeFSrIk958UR365Rvj6z-19" value="managePromoCodes()" style="edgeLabel;html=1;align=center;verticalAlign=middle;resizable=0;points=[];" parent="BeFSrIk958UR365Rvj6z-18" vertex="1" connectable="0">
          <mxGeometry x="-0.0645" y="3" relative="1" as="geometry">
            <mxPoint y="-7" as="offset" />
          </mxGeometry>
        </mxCell>
        <mxCell id="BeFSrIk958UR365Rvj6z-20" value="return PromoCodesList" style="html=1;verticalAlign=bottom;endArrow=open;dashed=1;endSize=8;edgeStyle=elbowEdgeStyle;elbow=vertical;curved=0;rounded=0;" parent="0jZ7-tW0BVTjiJO53gmQ-55" edge="1">
          <mxGeometry x="0.0051" relative="1" as="geometry">
            <mxPoint x="258" y="104" as="targetPoint" />
            <Array as="points">
              <mxPoint x="348" y="104" />
            </Array>
            <mxPoint x="453" y="104.00000000000011" as="sourcePoint" />
            <mxPoint as="offset" />
          </mxGeometry>
        </mxCell>
        <mxCell id="BeFSrIk958UR365Rvj6z-21" value="display &quot;Existing Promo Codes&quot;" style="html=1;verticalAlign=bottom;endArrow=open;dashed=1;endSize=8;edgeStyle=elbowEdgeStyle;elbow=vertical;curved=0;rounded=0;" parent="0jZ7-tW0BVTjiJO53gmQ-55" edge="1">
          <mxGeometry relative="1" as="geometry">
            <mxPoint x="15.5" y="146.0000000000001" as="targetPoint" />
            <Array as="points">
              <mxPoint x="113.5" y="146" />
            </Array>
            <mxPoint x="248.5" y="146" as="sourcePoint" />
          </mxGeometry>
        </mxCell>
        <mxCell id="0jZ7-tW0BVTjiJO53gmQ-73" value="display &quot;Failed to Delete Code&quot;" style="html=1;verticalAlign=bottom;endArrow=open;dashed=1;endSize=8;edgeStyle=elbowEdgeStyle;elbow=vertical;curved=0;rounded=0;align=center;" parent="0jZ7-tW0BVTjiJO53gmQ-55" edge="1">
          <mxGeometry relative="1" as="geometry">
            <mxPoint x="15" y="208" as="targetPoint" />
            <Array as="points">
              <mxPoint x="107" y="208" />
            </Array>
            <mxPoint x="248" y="208" as="sourcePoint" />
          </mxGeometry>
        </mxCell>
        <mxCell id="EJbwKhiUwv7nrLsNbU0W-2" value="display &quot;Are You Sure?&quot;" style="html=1;verticalAlign=bottom;endArrow=open;dashed=1;endSize=8;edgeStyle=elbowEdgeStyle;elbow=vertical;curved=0;rounded=0;" parent="1" edge="1">
          <mxGeometry x="0.0129" y="1" relative="1" as="geometry">
            <mxPoint x="165" y="319.0000000000001" as="targetPoint" />
            <Array as="points">
              <mxPoint x="263" y="319" />
            </Array>
            <mxPoint x="398" y="319" as="sourcePoint" />
            <mxPoint as="offset" />
          </mxGeometry>
        </mxCell>
      </root>
    </mxGraphModel>
  </diagram>
</mxfile>
